<?xml version="1.0" standalone="no"?>
<!DOCTYPE svg PUBLIC "-//W3C//DTD SVG 20010904//EN"
 "http://www.w3.org/TR/2001/REC-SVG-20010904/DTD/svg10.dtd">
<svg version="1.0" xmlns="http://www.w3.org/2000/svg"
 width="256.000000pt" height="256.000000pt" viewBox="0 0 256.000000 256.000000"
 preserveAspectRatio="xMidYMid meet">
<metadata>
Created by potrace 1.14, written by Peter Selinger 2001-2017
</metadata>
<g transform="translate(0.000000,256.000000) scale(0.100000,-0.100000)"
fill="#000000" stroke="none">
<path d="M1356 2103 c-3 -3 -62 -7 -132 -9 -71 -2 -135 -6 -143 -9 -9 -2 -36
-7 -60 -10 -24 -3 -65 -10 -90 -16 -25 -6 -55 -12 -66 -14 -11 -3 -66 -27
-122 -55 -203 -102 -303 -249 -297 -440 2 -69 29 -159 117 -385 18 -44 32 -82
33 -85 1 -5 53 -120 79 -175 13 -27 36 -82 40 -95 1 -3 9 -22 18 -44 9 -21 14
-42 11 -47 -3 -5 0 -9 5 -9 6 0 19 -28 28 -61 10 -34 29 -74 43 -89 14 -15 24
-34 22 -41 -3 -10 -1 -10 7 1 7 9 14 11 19 5 4 -5 14 -11 22 -13 8 -2 17 -8
18 -13 3 -6 10 -5 18 2 11 9 15 8 20 -4 3 -9 12 -13 20 -10 8 3 14 0 14 -7 0
-6 4 -9 9 -5 5 3 12 1 16 -4 3 -6 13 -7 22 -4 11 4 14 3 9 -5 -9 -16 7 -15 22
0 7 7 12 8 12 2 0 -6 7 -11 15 -11 8 0 12 4 9 9 -3 4 0 8 5 8 6 0 11 -5 11
-12 0 -9 3 -9 12 0 8 8 17 8 31 0 17 -9 19 -8 13 8 -6 15 -4 16 5 7 6 -6 18
-9 27 -6 11 5 13 3 7 -7 -6 -10 -4 -11 6 -4 18 12 79 13 79 2 0 -5 5 -6 10 -3
6 4 8 11 5 16 -3 5 1 6 9 3 9 -3 13 -11 9 -18 -4 -6 1 -5 10 3 9 7 17 10 17 6
0 -4 7 -2 15 5 13 11 14 10 9 -4 -5 -12 -2 -15 10 -10 9 3 13 11 9 18 -4 8 -2
8 7 -1 7 -6 19 -9 28 -6 10 4 13 2 8 -5 -4 -7 -2 -12 3 -12 6 0 11 5 11 10 0
6 14 10 31 10 16 0 28 -4 25 -8 -3 -5 2 -9 10 -9 8 0 13 6 10 13 -3 8 0 16 6
20 7 5 8 2 3 -6 -6 -10 -4 -12 9 -7 9 4 15 3 12 -2 -3 -5 1 -11 9 -14 10 -4
12 -1 8 11 -6 15 -5 15 10 3 14 -11 17 -11 17 0 0 11 2 11 10 -1 7 -11 10 -11
10 -2 0 9 5 10 19 2 14 -7 22 -7 27 2 5 7 3 8 -6 3 -9 -5 -11 -4 -6 4 6 9 11
9 22 0 11 -9 14 -8 14 5 0 9 5 16 11 16 5 0 7 -4 4 -10 -3 -5 -1 -10 4 -10 6
0 11 5 11 11 0 6 7 8 17 5 10 -4 14 -4 10 0 -7 8 22 33 38 34 6 0 3 -5 -5 -10
-8 -5 -10 -10 -4 -10 16 0 35 25 26 35 -4 5 -1 5 6 1 6 -4 12 -2 12 4 0 6 5 8
11 5 6 -4 17 2 25 14 9 12 20 19 25 16 5 -4 9 1 9 11 0 14 3 14 15 4 13 -11
14 -10 8 5 -5 15 -3 17 12 12 15 -6 16 -5 5 8 -11 13 -11 16 1 13 8 -2 13 3
11 11 -3 12 -1 12 15 1 10 -8 15 -10 11 -6 -5 5 1 16 12 23 11 8 18 19 15 24
-4 5 -1 9 5 9 6 0 8 5 4 13 -5 7 0 6 11 -3 11 -9 16 -10 11 -2 -4 6 -2 12 3
12 6 0 11 5 11 11 0 5 -6 7 -12 3 -9 -5 -9 -3 1 9 7 9 17 14 22 11 5 -3 9 1 9
9 0 8 7 17 15 21 8 3 15 11 15 18 0 8 9 21 20 31 21 18 28 43 8 31 -7 -5 -8
-3 -2 7 12 19 12 33 -1 41 -6 5 -4 8 5 8 13 0 13 1 0 10 -12 8 -13 12 -2 19
11 7 11 9 -2 14 -9 4 -13 14 -11 26 2 11 -1 23 -6 26 -5 4 -6 13 -1 22 6 10 2
29 -10 54 -10 22 -16 44 -13 49 3 6 1 10 -5 10 -6 0 -8 5 -5 10 3 6 1 10 -4
10 -6 0 -11 11 -11 25 0 14 -6 25 -12 25 -9 0 -8 4 2 10 10 6 11 10 3 10 -7 0
-13 11 -13 25 0 14 -5 25 -11 25 -5 0 -7 5 -4 10 4 6 1 18 -7 27 -11 14 -11
16 2 8 11 -7 10 -2 -4 19 -11 18 -13 26 -5 21 8 -3 5 1 -5 9 -15 12 -16 16 -5
16 12 0 12 2 0 9 -8 5 -12 18 -8 30 3 12 1 19 -4 15 -8 -5 -13 9 -10 29 0 4
-3 7 -7 7 -5 0 -9 7 -10 15 -1 8 -3 22 -4 30 -1 8 -5 15 -10 15 -5 0 -6 5 -3
10 3 6 2 10 -4 10 -6 0 -8 7 -5 15 4 8 1 15 -7 15 -7 0 -9 3 -6 7 4 3 2 12 -5
20 -6 7 -8 16 -5 19 3 3 -3 14 -14 25 -17 17 -25 45 -20 72 1 5 -3 6 -8 2 -6
-3 -17 7 -25 22 -36 70 -226 257 -295 290 -51 25 -175 56 -185 46z"/>
</g>
</svg>
